<?xml version="1.0" standalone="no"?>
<!DOCTYPE svg PUBLIC "-//W3C//DTD SVG 20010904//EN"
 "http://www.w3.org/TR/2001/REC-SVG-20010904/DTD/svg10.dtd">
<svg version="1.0" xmlns="http://www.w3.org/2000/svg"
 width="1000.000000pt" height="1000.000000pt" viewBox="0 0 1000.000000 1000.000000"
 preserveAspectRatio="xMidYMid meet">
<metadata>
Created by potrace 1.11, written by Peter Selinger 2001-2013
</metadata>
<g transform="translate(0.000000,1000.000000) scale(0.100000,-0.100000)"
fill="#000000" stroke="none">
<path d="M0 5000 l0 -5000 5000 0 5000 0 0 5000 0 5000 -5000 0 -5000 0 0
-5000z m5188 3464 c226 -36 422 -135 590 -298 133 -128 205 -236 273 -406 76
-194 72 -130 76 -1150 5 -995 3 -1036 -49 -1205 -56 -185 -142 -327 -283 -470
-149 -149 -315 -244 -520 -296 -108 -28 -135 -31 -275 -31 -140 0 -166 3 -274
31 -206 53 -372 147 -520 296 -141 141 -228 285 -284 470 -54 178 -54 168 -50
1180 l3 940 27 96 c78 284 233 507 463 664 140 95 263 144 465 184 73 14 253
12 358 -5z m-1508 -2793 c0 -105 36 -277 83 -402 181 -473 591 -791 1099 -850
178 -20 341 -3 536 57 427 132 760 478 879 914 20 76 43 224 43 288 l0 52 219
0 218 0 -4 -72 c-21 -390 -150 -731 -384 -1023 -259 -321 -617 -539 -1028
-624 l-86 -18 -3 -986 -2 -987 707 0 c683 0 709 -1 740 -20 50 -30 57 -52 61
-202 5 -171 0 -199 -44 -243 l-35 -35 -1675 0 c-1654 0 -1676 0 -1704 20 -50
36 -60 73 -60 229 0 162 10 199 62 231 32 19 49 20 740 20 l708 0 -3 987 -2
986 -90 18 c-179 34 -428 133 -590 235 -243 153 -453 375 -598 633 -132 234
-200 475 -221 779 l-5 72 220 0 219 0 0 -59z"/>
<path d="M4453 7510 c-86 -18 -153 -75 -180 -153 -24 -69 -1 -146 67 -232 l31
-39 -28 -20 c-103 -72 -167 -181 -166 -283 2 -228 257 -318 487 -172 39 24 51
28 58 17 5 -7 20 -32 34 -55 14 -24 28 -43 30 -43 8 0 144 93 144 98 0 3 -22
31 -50 63 -27 32 -50 62 -50 69 0 6 25 46 55 90 l56 79 -68 43 c-37 24 -73 47
-80 51 -8 5 -17 -10 -29 -50 -9 -32 -22 -66 -29 -75 -10 -16 -14 -13 -41 23
-16 22 -46 61 -66 86 l-37 46 37 27 c69 50 121 146 121 225 1 133 -147 235
-296 205z m93 -138 c49 -33 40 -137 -16 -190 l-23 -21 -17 22 c-71 92 -64 197
13 197 18 0 37 -4 43 -8z m-19 -498 c87 -113 84 -109 77 -128 -10 -26 -87 -66
-126 -66 -61 0 -118 63 -118 130 0 17 7 47 16 68 16 38 63 94 75 90 4 -2 38
-44 76 -94z"/>
<path d="M5340 7509 c-112 -22 -198 -124 -186 -221 5 -50 40 -123 81 -174 l26
-32 -35 -22 c-47 -29 -110 -101 -138 -158 -31 -64 -31 -170 0 -229 67 -128
247 -172 402 -96 36 18 75 39 86 48 21 15 23 14 58 -35 21 -30 34 -56 29 -63
-4 -7 6 -3 22 7 88 57 135 89 135 92 0 2 -25 33 -55 69 l-55 64 60 85 59 86
-70 45 c-79 51 -97 55 -103 23 -3 -13 -7 -34 -10 -48 -6 -27 -32 -68 -39 -60
-2 3 -32 41 -66 85 l-62 79 28 20 c85 61 139 163 130 247 -16 132 -151 218
-297 188z m109 -155 c35 -45 23 -114 -31 -171 l-21 -23 -30 41 c-37 50 -47
117 -23 154 23 35 77 35 105 -1z m-26 -489 c69 -92 77 -106 66 -124 -20 -30
-82 -61 -126 -61 -93 0 -142 113 -93 210 19 37 57 80 69 80 3 -1 41 -48 84
-105z"/>
</g>
</svg>
