<?xml version="1.0" standalone="no"?>
<!DOCTYPE svg PUBLIC "-//W3C//DTD SVG 20010904//EN"
 "http://www.w3.org/TR/2001/REC-SVG-20010904/DTD/svg10.dtd">
<svg version="1.0" xmlns="http://www.w3.org/2000/svg"
 width="1000.000000pt" height="1000.000000pt" viewBox="0 0 1000.000000 1000.000000"
 preserveAspectRatio="xMidYMid meet">
<metadata>
Created by potrace 1.11, written by Peter Selinger 2001-2013
</metadata>
<g transform="translate(0.000000,1000.000000) scale(0.100000,-0.100000)"
fill="#000000" stroke="none">
<path d="M0 5000 l0 -5000 5000 0 5000 0 0 5000 0 5000 -5000 0 -5000 0 0
-5000z m2620 3544 c36 -9 107 -36 159 -61 124 -59 211 -144 270 -264 41 -84
71 -191 71 -261 l0 -38 -214 0 -213 0 -11 55 c-25 122 -115 194 -256 203 -137
9 -247 -45 -292 -141 l-24 -52 0 -475 c0 -317 4 -488 11 -515 7 -25 29 -58 58
-87 60 -60 131 -82 240 -76 150 9 244 85 266 216 l7 42 215 0 216 0 -7 -69
c-34 -369 -339 -599 -766 -577 -63 3 -144 13 -180 22 -182 45 -342 165 -419
313 -70 135 -71 142 -71 723 0 335 4 536 11 570 6 29 29 91 51 138 47 98 146
205 238 257 69 39 186 79 270 92 88 13 290 5 370 -15z m1626 15 c247 -34 431
-155 522 -341 68 -139 67 -134 67 -718 0 -481 -2 -530 -18 -584 -65 -210 -213
-362 -420 -431 -215 -71 -479 -55 -676 42 -105 52 -215 161 -265 263 -63 130
-66 155 -66 721 0 471 1 511 20 583 28 109 74 190 155 272 159 159 410 231
681 193z m1825 -46 c249 -69 425 -248 474 -480 21 -97 21 -957 1 -1053 -50
-234 -217 -406 -468 -482 -69 -21 -94 -22 -495 -26 l-423 -3 0 1036 0 1036
418 -3 c388 -4 422 -6 493 -25z m2169 -158 l0 -185 -437 -2 -438 -3 -3 -222
-2 -223 390 0 390 0 0 -190 0 -190 -390 0 -390 0 2 -247 3 -248 438 -3 437 -2
0 -185 0 -185 -655 0 -655 0 0 1035 0 1035 655 0 655 0 0 -185z m-5660 -2251
c0 -3 122 -466 270 -1029 149 -562 270 -1026 270 -1029 0 -4 -62 -5 -137 -4
l-138 3 -71 290 -71 290 -318 0 -319 0 -66 -265 c-37 -146 -70 -277 -73 -292
l-7 -28 -136 0 c-105 0 -135 3 -132 13 3 6 130 472 283 1035 l278 1022 183 0
c101 0 184 -3 184 -6z m1485 -602 c341 -864 342 -868 383 -1024 22 -85 43
-143 51 -146 11 -4 12 4 7 39 -18 126 -26 411 -26 1042 l0 697 125 0 125 0 0
-1035 0 -1035 -163 0 -163 0 -269 692 c-287 737 -318 824 -362 987 -16 60 -34
106 -42 109 -11 4 -12 -2 -6 -24 4 -16 10 -419 12 -896 l4 -868 -125 0 -126 0
0 1035 0 1035 168 0 167 -1 240 -607z m1980 575 c166 -55 291 -159 359 -299
65 -131 67 -159 64 -732 l-3 -511 -31 -85 c-56 -159 -153 -268 -299 -336 -137
-65 -154 -67 -547 -72 l-358 -4 0 1037 0 1036 368 -3 367 -4 80 -27z m-3443
-2383 c234 -51 408 -213 463 -429 8 -32 15 -74 15 -92 l0 -33 -213 0 -213 0
-12 44 c-13 52 -60 103 -118 131 -48 23 -191 32 -250 16 -176 -47 -221 -259
-78 -367 43 -32 85 -45 314 -99 290 -68 459 -180 544 -360 42 -88 54 -137 62
-256 21 -325 -185 -574 -535 -644 -117 -24 -354 -16 -461 15 -161 47 -293 137
-368 252 -45 70 -88 189 -94 258 l-3 45 215 0 214 0 6 -30 c23 -110 111 -171
263 -182 211 -15 331 68 332 228 0 56 -4 73 -30 115 -48 77 -102 107 -262 144
-261 60 -351 92 -458 164 -122 81 -203 197 -240 341 -20 77 -20 244 0 319 63
241 278 402 585 440 65 8 248 -3 322 -20z m1266 -406 l2 -398 245 0 245 0 0
400 0 400 215 0 215 0 0 -1040 0 -1040 -215 0 -215 0 0 440 0 440 -245 0 -245
0 -2 -437 -3 -438 -212 -3 -213 -2 0 1040 0 1040 213 -2 212 -3 3 -397z m2620
210 l2 -188 -220 0 -220 0 0 -660 0 -660 220 0 220 0 -2 -187 -3 -188 -645 0
-645 0 -3 188 -2 187 215 0 215 0 0 660 0 660 -215 0 -215 0 0 190 0 190 648
-2 647 -3 3 -187z m1364 159 c136 -36 228 -86 314 -173 117 -116 174 -261 174
-444 0 -259 -120 -457 -340 -563 -142 -68 -206 -79 -467 -85 l-223 -4 0 -389
0 -389 -212 2 -213 3 -3 1025 c-1 564 0 1031 3 1039 4 11 79 12 438 9 425 -5
433 -6 529 -31z"/>
<path d="M3987 8173 c-29 -10 -66 -34 -92 -60 -75 -75 -75 -74 -75 -602 0
-311 4 -479 11 -506 17 -61 65 -120 122 -151 67 -36 185 -45 271 -20 73 22
148 92 168 157 18 61 19 965 1 1025 -16 52 -74 119 -127 146 -56 30 -209 36
-279 11z"/>
<path d="M5590 7504 l0 -636 168 4 c142 3 174 7 212 24 61 28 107 68 133 118
22 41 22 46 22 492 l0 451 -30 48 c-65 104 -151 135 -378 135 l-127 0 0 -636z"/>
<path d="M2370 5868 c-7 -40 -65 -287 -130 -548 l-118 -475 260 -3 c144 -1
263 -1 265 1 1 2 -45 197 -103 433 -109 443 -144 599 -144 640 0 50 -17 21
-30 -48z"/>
<path d="M5490 5075 l0 -805 168 0 c191 0 262 9 336 43 104 48 180 146 205
265 15 71 15 917 0 997 -26 144 -121 246 -268 291 -33 10 -103 14 -243 14
l-198 0 0 -805z"/>
<path d="M7315 3317 c-3 -7 -4 -136 -3 -287 l3 -275 170 -3 c205 -3 274 12
339 75 134 130 105 382 -55 463 -54 28 -146 40 -307 40 -106 0 -144 -3 -147
-13z"/>
</g>
</svg>
